PathFileType	4	(X/Y/Z)	D:\TRACE\v60_Jaco2_6-2-23\JustArmDRS_Motion1_4-platform.trc
DataRate	CameraRate	NumFrames	NumMarkers	Units	OrigDataRate	OrigDataStartFrame	OrigNumFrames
100.00	100.00	      24	5	mm	100.00	2555	      6812
Frame#	Time	Left_Front			Right_Front			Left_Aft			Right_Aft			Post			
		X1	Y1	Z1	X2	Y2	Z2	X3	Y3	Z3	X4	Y4	Z4	X5	Y5	Z5	

2555	25.540	-850.14288	11.68352	-637.59790	719.82245	12.71293	-643.32178	-758.50812	6.18279	497.30820	683.94940	4.75172	506.83755	-63.43074	1312.58154	-955.39612	
2556	25.550	-849.98340	11.92941	-637.36279	720.25488	13.21189	-643.09314	-758.30804	5.92302	497.34729	684.24048	4.50430	506.96436	-63.48123	1313.06201	-954.26251	
2557	25.560	-849.66547	12.51851	-637.35010	720.36365	13.43182	-643.01147	-757.90143	5.57688	497.43002	684.52002	4.21342	507.18869	-62.54708	1313.59143	-953.12939	
2558	25.570	-849.43683	13.10288	-637.40924	720.43347	13.80801	-642.98090	-757.57318	5.21662	497.61050	684.79468	3.91969	507.28384	-62.63559	1314.05005	-952.45337	
2559	25.580	-849.37488	13.40951	-637.22717	720.72308	14.30523	-642.86206	-757.24933	4.84527	497.71017	685.11401	3.61946	507.35461	-62.44374	1314.52698	-951.17615	
2560	25.590	-849.03149	13.87879	-637.23029	720.92682	14.66916	-642.87207	-757.01514	4.61280	497.76245	685.30121	3.47092	507.37122	-61.83957	1315.01331	-950.64355	
2561	25.600	-848.70325	14.17024	-637.30524	721.16705	15.09085	-642.71460	-756.61041	4.39574	497.79352	685.48096	3.26686	507.41943	-61.65039	1315.77625	-950.15466	
2562	25.610	-848.34314	14.62807	-637.09637	721.55829	15.37388	-642.48608	-756.35730	4.28615	497.84454	685.87299	2.94933	507.53326	-61.23828	1316.26355	-949.54419	
2563	25.620	-848.20782	15.07132	-637.17755	722.10321	15.60047	-642.35132	-756.01239	4.01785	497.95621	686.13812	2.68265	507.59171	-61.34234	1316.87500	-948.83325	
2564	25.630	-847.84393	15.23098	-637.13477	722.50415	15.90241	-642.40466	-755.67535	3.71879	498.12646	686.47705	2.44327	507.71674	-60.99801	1317.26587	-948.14545	
2565	25.640	-847.38574	15.46922	-636.88843	722.83954	16.24694	-642.34015	-755.43555	3.46423	498.32394	686.96033	2.17239	507.82559	-60.25026	1318.15186	-947.35663	
2566	25.650	-846.86609	16.01684	-636.67078	723.22607	16.99391	-642.22571	-754.90997	3.13582	498.44913	687.55444	1.75085	507.83368	-59.75210	1318.54456	-946.78406	
2567	25.660	-846.36371	16.55470	-636.70514	723.60413	17.49705	-642.21216	-754.49335	2.84566	498.53870	687.94043	1.52622	507.90256	-59.45610	1318.95691	-945.34558	
2568	25.670	-845.92548	16.96002	-636.68658	723.89606	17.62396	-642.09967	-754.12933	2.63021	498.53357	687.92419	1.38552	508.22217	-59.23674	1319.70874	-944.56238	
2569	25.680	-845.51941	17.21537	-636.48029	724.36090	17.98479	-641.95679	-753.63605	2.35766	498.53766	688.69305	0.95632	508.23447	-58.51109	1320.27576	-943.24896	
2570	25.690	-844.97235	17.58895	-636.18317	725.07629	18.28282	-641.85028	-753.26367	2.03556	498.65042	689.25348	0.67600	508.32266	-58.36190	1320.85413	-942.31256	
2571	25.700	-844.72192	18.14860	-636.17438	725.56940	18.65871	-641.61609	-752.91034	1.84007	498.71729	689.83087	0.48724	508.37286	-57.44098	1321.42847	-941.05695	
2572	25.710	-844.32623	18.46596	-636.19220	725.95074	19.12362	-641.61432	-752.25464	1.53644	498.76767	690.19232	0.20145	508.45755	-57.15384	1321.88843	-940.39471	
2573	25.720	-843.99158	18.72420	-636.16907	726.42804	19.43567	-641.49005	-751.72583	1.21719	498.86172	690.68481	-0.10331	508.50449	-56.92900	1322.24683	-939.41986	
2574	25.730	-843.52698	19.06513	-636.17456	726.68005	19.73125	-641.46967	-751.24683	1.06636	498.96005	690.84308	-0.25736	508.59274	-56.50150	1322.62280	-938.92023	
2575	25.740	-842.69556	19.43057	-636.08386	727.06348	20.11701	-641.37134	-750.79993	0.85898	499.01279	691.33990	-0.50922	508.69229	-55.92823	1323.42114	-938.46747	
2576	25.750	-842.22559	19.52821	-635.79443	727.63556	20.58527	-641.30396	-750.34607	0.61232	499.13461	692.12921	-0.83269	508.77261	-55.32764	1323.85168	-938.31677	
2577	25.760	-841.63940	19.84475	-635.53845	728.27386	20.91677	-641.32581	-749.87366	0.38194	499.16565	692.50574	-1.00845	508.84470	-54.67154	1324.26868	-938.01062	
2578	25.770	-840.95587	20.18352	-635.30426	728.94714	21.37218	-641.23712	-749.11462	0.01240	499.22174	692.84961	-1.22664	508.91571	-53.66833	1324.84290	-937.03125	
